<?xml version="1.0" encoding="utf-8"?>
<!-- Generator: Adobe Illustrator 14.0.0, SVG Export Plug-In . SVG Version: 6.00 Build 43363)  -->
<!DOCTYPE svg PUBLIC "-//W3C//DTD SVG 1.1//EN" "http://www.w3.org/Graphics/SVG/1.1/DTD/svg11.dtd">
<svg version="1.1" id="Capa_1" xmlns="http://www.w3.org/2000/svg" xmlns:xlink="http://www.w3.org/1999/xlink" x="0px" y="0px"
	 width="484px" height="139px" viewBox="221.5 216.5 484 139" enable-background="new 221.5 216.5 484 139" xml:space="preserve">
<g enable-background="new    ">
	<path d="M335.214,313.998c0.527-0.961,1.08-1.439,1.656-1.439s1.08,0.167,1.512,0.504c0.527,0.432,1.031,1.031,1.512,1.8
		c-0.72,1.535-1.703,2.927-2.951,4.176c-1.104,1.056-2.568,2.004-4.393,2.844c-1.825,0.84-4.129,1.261-6.912,1.261
		c-2.735,0-5.58-0.505-8.531-1.513c-2.952-1.008-5.678-2.616-8.173-4.824c-2.496-2.208-4.548-5.052-6.155-8.531
		c-1.609-3.479-2.412-7.692-2.412-12.637c0-1.631,0.216-3.431,0.647-5.398c0.433-1.968,1.056-4.104,1.872-6.408
		c-1.92-0.527-3.744-1.188-5.472-1.979c-1.728-0.791-3.36-1.596-4.896-2.412c-3.6,3.984-7.2,7.788-10.8,11.412
		c-3.6,3.624-7.045,6.828-10.332,9.611c-3.289,2.784-6.313,4.993-9.072,6.624c-2.759,1.632-5.1,2.448-7.02,2.448
		c-3.264,0-6.095-0.457-8.496-1.368c-2.4-0.912-4.416-2.135-6.048-3.672c-1.631-1.536-2.844-3.336-3.636-5.4
		c-0.792-2.063-1.188-4.223-1.188-6.479c0-2.976,0.72-6,2.16-9.072c1.44-3.071,3.589-5.868,6.444-8.388
		c2.856-2.521,6.42-4.583,10.692-6.192c4.273-1.607,9.216-2.412,14.832-2.412c2.207,0,4.248,0.169,6.12,0.504
		c1.872,0.337,3.647,0.769,5.328,1.297c1.68,0.528,3.276,1.151,4.788,1.871c1.512,0.721,3.035,1.465,4.572,2.232
		c2.304-2.544,4.583-5.112,6.84-7.704c2.255-2.592,4.438-5.147,6.552-7.668c2.112-2.52,4.14-4.943,6.084-7.271
		s3.708-4.476,5.292-6.444l8.784-10.44c0.144-0.575,0.443-1.044,0.9-1.403c0.455-0.36,1.02-0.516,1.691-0.469
		c0.671,0.049,1.463,0.313,2.376,0.792c0.911,0.48,1.788,1.105,2.628,1.872c0.839,0.769,1.548,1.62,2.124,2.557
		c0.576,0.936,0.864,1.86,0.864,2.771c0,1.104-0.313,2.557-0.937,4.356c-0.624,1.8-1.439,3.841-2.447,6.12
		c-1.008,2.28-2.16,4.716-3.456,7.308s-2.617,5.209-3.96,7.848c-1.394,2.736-2.726,5.341-3.996,7.813
		c-1.272,2.473-2.532,5.053-3.78,7.74c0.671,0.288,1.127,0.647,1.368,1.08c0.24,0.432,0.36,0.863,0.36,1.296
		c0,0.673-0.313,1.272-0.937,1.8c-0.625,0.528-1.633,0.84-3.023,0.936c-1.104,2.593-1.98,4.993-2.628,7.2
		c-0.648,2.209-0.973,4.08-0.973,5.616c0,3.888,0.601,7.092,1.8,9.612s2.664,4.511,4.393,5.976c1.728,1.464,3.527,2.472,5.399,3.024
		c1.872,0.551,3.456,0.827,4.752,0.827c2.543,0,4.452-0.408,5.725-1.224c1.271-0.816,2.099-1.584,2.483-2.304L335.214,313.998z
		 M255.582,302.694c1.44,0,3.289-0.708,5.544-2.124c2.256-1.415,4.776-3.313,7.56-5.688c2.783-2.376,5.735-5.147,8.856-8.315
		c3.12-3.168,6.312-6.504,9.576-10.008c-2.592-1.297-5.209-2.4-7.848-3.313c-2.64-0.911-5.592-1.368-8.856-1.368
		c-3.312,0-6.348,0.756-9.108,2.269c-2.76,1.512-5.136,3.42-7.128,5.724c-1.991,2.304-3.552,4.801-4.68,7.488
		c-1.127,2.688-1.692,5.208-1.692,7.56c0,2.257,0.612,4.116,1.836,5.58S252.846,302.694,255.582,302.694z M296.262,275.262
		c1.487,0.817,2.891,1.489,4.211,2.017c1.32,0.528,2.772,0.984,4.356,1.368c1.392-3.359,2.952-6.876,4.68-10.549
		c1.729-3.672,3.432-7.283,5.112-10.836c0.767-1.487,1.332-2.566,1.692-3.239c0.359-0.672,0.647-1.199,0.863-1.584
		c0.216-0.384,0.433-0.816,0.648-1.296s0.54-1.297,0.972-2.448c-2.833,3.553-6.168,7.62-10.008,12.204
		C304.949,265.482,300.773,270.271,296.262,275.262z"/>
	<path d="M371.933,274.254c0.479-0.864,1.057-1.428,1.729-1.691c0.672-0.264,1.26-0.288,1.764-0.072
		c0.504,0.216,0.875,0.637,1.116,1.26c0.239,0.624,0.167,1.393-0.216,2.304l-0.648,1.44c-0.625,1.296-1.403,2.916-2.34,4.86
		c-0.936,1.943-2.005,4.008-3.204,6.191c-1.2,2.185-2.497,4.368-3.888,6.552c-1.394,2.186-2.833,4.153-4.32,5.904
		c-1.488,1.753-3.013,3.168-4.572,4.248c-1.561,1.08-3.107,1.62-4.644,1.62c-1.008,0-1.993-0.312-2.952-0.936
		c-0.961-0.624-1.813-1.428-2.556-2.412c-0.745-0.983-1.356-2.04-1.836-3.168c-0.48-1.128-0.721-2.196-0.721-3.204
		c0-0.815,0.145-1.848,0.433-3.097c-1.249,1.682-2.509,3.289-3.78,4.824c-1.271,1.537-2.497,2.905-3.672,4.104
		c-1.177,1.2-2.281,2.148-3.313,2.844c-1.032,0.696-1.907,1.044-2.628,1.044c-1.104,0-2.159-0.348-3.168-1.044
		c-1.008-0.695-1.883-1.548-2.628-2.556c-0.744-1.009-1.343-2.089-1.8-3.24c-0.456-1.152-0.684-2.184-0.684-3.096
		c0-1.297,0.191-2.664,0.576-4.104s0.899-2.939,1.548-4.5c0.647-1.56,1.356-3.119,2.124-4.68c0.769-1.56,1.561-3.107,2.376-4.645
		c0.672-1.247,1.319-2.483,1.943-3.708c0.624-1.224,1.177-2.387,1.656-3.492c0.479-1.104,0.864-2.124,1.152-3.06
		s0.432-1.764,0.432-2.484c0-0.767,0.527-1.175,1.584-1.224c1.055-0.047,2.232,0.216,3.528,0.792
		c1.296,0.576,2.472,1.393,3.528,2.448c1.055,1.057,1.584,2.304,1.584,3.744c0,0.575-0.181,1.367-0.54,2.376
		c-0.36,1.008-0.828,2.16-1.404,3.456s-1.249,2.688-2.016,4.176c-0.77,1.488-1.562,3.023-2.376,4.607
		c-0.961,1.872-1.921,3.721-2.881,5.544c-0.96,1.825-1.8,3.456-2.52,4.896c-0.72,1.44-1.272,2.604-1.656,3.492
		c-0.385,0.889-0.504,1.332-0.359,1.332c0.287,0,0.827-0.396,1.619-1.188s1.717-1.823,2.772-3.096
		c1.055-1.271,2.208-2.736,3.456-4.392c1.248-1.656,2.52-3.349,3.816-5.076c2.976-4.032,6.264-8.615,9.863-13.752
		c0.911-2.017,1.703-3.768,2.376-5.256c0.671-1.487,1.008-2.448,1.008-2.881c0-0.767,0.479-1.115,1.44-1.044
		c0.96,0.072,2.016,0.421,3.168,1.044c1.152,0.625,2.208,1.44,3.168,2.448c0.959,1.008,1.44,2.017,1.44,3.024
		c0,0.673-0.396,1.884-1.188,3.636c-0.792,1.753-1.741,3.78-2.844,6.084c-0.817,1.681-1.656,3.444-2.521,5.292
		c-0.863,1.849-1.655,3.625-2.376,5.328c-0.72,1.704-1.32,3.288-1.8,4.752c-0.479,1.465-0.72,2.628-0.72,3.492
		c0,0.385,0.047,0.576,0.144,0.576c0.815,0,1.717-0.479,2.7-1.439c0.983-0.96,2.017-2.196,3.097-3.708
		c1.079-1.512,2.171-3.204,3.275-5.076s2.135-3.744,3.096-5.616c0.96-1.872,1.837-3.636,2.629-5.292
		c0.792-1.655,1.45-3.011,1.979-4.067l0.648-1.368L371.933,274.254L371.933,274.254z"/>
	<path d="M414.917,274.182c0.479-0.863,1.044-1.427,1.692-1.691c0.647-0.264,1.248-0.288,1.8-0.072s0.937,0.637,1.15,1.26
		c0.218,0.625,0.134,1.417-0.252,2.376c-0.862,1.921-2.088,3.9-3.672,5.94c-1.584,2.041-3.42,4.104-5.508,6.192
		s-4.381,4.2-6.876,6.336c-2.496,2.136-5.064,4.26-7.704,6.372c-1.201,2.64-2.533,5.376-3.996,8.208
		c-1.465,2.831-3.013,5.604-4.644,8.315c-1.632,2.711-3.313,5.279-5.04,7.704c-1.729,2.423-3.468,4.547-5.221,6.372
		c-1.752,1.823-3.479,3.276-5.184,4.356c-1.705,1.079-3.325,1.619-4.86,1.619c-2.207,0-4.031-0.288-5.472-0.863
		c-1.439-0.576-2.58-1.272-3.42-2.088c-0.839-0.817-1.428-1.692-1.764-2.629c-0.335-0.936-0.504-1.764-0.504-2.483
		c0-1.488,0.684-3.108,2.052-4.86c1.368-1.753,3.216-3.625,5.544-5.616c2.329-1.992,5.015-4.093,8.063-6.3
		c3.049-2.208,6.252-4.512,9.612-6.912l0.36-0.792c-0.913,0.673-1.825,1.201-2.736,1.584c-0.913,0.384-1.849,0.576-2.808,0.576
		c-1.872,0-3.518-0.42-4.933-1.26c-1.417-0.839-2.604-1.944-3.563-3.313c-0.959-1.367-1.692-2.891-2.196-4.571
		c-0.504-1.68-0.756-3.359-0.756-5.04c0-2.063,0.349-4.224,1.044-6.48c0.697-2.256,1.656-4.475,2.88-6.66
		c1.224-2.184,2.675-4.248,4.356-6.191c1.68-1.944,3.491-3.647,5.436-5.112c1.944-1.464,3.983-2.628,6.12-3.492
		c2.135-0.863,4.284-1.296,6.444-1.296c1.823,0,3.358,0.252,4.607,0.756c1.248,0.504,2.279,1.152,3.097,1.944
		c0.814,0.792,1.45,1.656,1.907,2.592c0.456,0.937,0.768,1.849,0.937,2.736c0.167,0.889,0.228,1.691,0.181,2.412
		c-0.049,0.72-0.121,1.248-0.217,1.584c-0.576,1.2-1.2,1.872-1.872,2.016c0.767,0.817,1.415,1.729,1.944,2.736
		c0.526,1.008,0.792,1.943,0.792,2.808c0,0.673-0.217,1.765-0.647,3.276c-0.433,1.512-0.985,3.156-1.657,4.932
		c3.456-2.88,6.528-5.747,9.217-8.604c2.688-2.855,4.774-5.725,6.264-8.604L414.917,274.182L414.917,274.182z M360.413,330.918
		c1.296,0,2.664-0.492,4.104-1.476c1.44-0.984,2.894-2.305,4.356-3.96c1.464-1.656,2.939-3.601,4.428-5.832
		c1.487-2.232,2.952-4.597,4.393-7.092c-2.545,1.919-4.933,3.743-7.164,5.472c-2.232,1.728-4.177,3.323-5.832,4.788
		c-1.656,1.464-2.963,2.783-3.924,3.96c-0.959,1.176-1.44,2.171-1.44,2.988C359.333,330.533,359.693,330.918,360.413,330.918z
		 M396.917,274.83c0.047-0.096,0.06-0.36,0.036-0.792c-0.025-0.432-0.169-0.888-0.432-1.368c-0.265-0.479-0.696-0.911-1.297-1.296
		c-0.601-0.384-1.451-0.576-2.556-0.576c-1.152,0-2.388,0.504-3.708,1.513c-1.32,1.008-2.628,2.328-3.924,3.96
		s-2.545,3.468-3.744,5.508c-1.2,2.041-2.256,4.116-3.168,6.228c-0.912,2.113-1.645,4.141-2.196,6.084
		c-0.552,1.944-0.828,3.612-0.828,5.004c0,0.817,0.108,1.453,0.324,1.908c0.216,0.457,0.587,0.685,1.116,0.685
		c1.392,0,2.783-0.659,4.176-1.98c1.393-1.319,2.711-2.927,3.96-4.824c1.248-1.896,2.376-3.911,3.384-6.048
		c1.009-2.135,1.801-4.043,2.376-5.724v0.071c0.191-0.72,0.372-1.403,0.54-2.052c0.167-0.647,0.3-1.211,0.396-1.691v-0.288
		c0-1.536,0.276-2.616,0.828-3.24c0.551-0.623,1.284-0.937,2.196-0.937c0.768,0,1.584,0.288,2.447,0.864
		C396.749,275.406,396.773,275.071,396.917,274.83z"/>
	<path d="M453.869,274.254c0.479-0.864,1.057-1.428,1.729-1.691s1.261-0.288,1.765-0.072c0.504,0.216,0.876,0.637,1.116,1.26
		c0.238,0.624,0.168,1.393-0.217,2.304l-0.647,1.44c-0.624,1.296-1.403,2.916-2.34,4.86c-0.937,1.943-2.005,4.008-3.203,6.191
		c-1.201,2.185-2.497,4.368-3.89,6.552c-1.393,2.186-2.832,4.153-4.319,5.904c-1.488,1.753-3.013,3.168-4.571,4.248
		c-1.561,1.08-3.108,1.62-4.645,1.62c-1.009,0-1.992-0.312-2.952-0.936c-0.962-0.624-1.813-1.428-2.557-2.412
		c-0.745-0.983-1.355-2.04-1.836-3.168c-0.479-1.128-0.72-2.196-0.72-3.204c0-0.815,0.144-1.848,0.432-3.097
		c-1.248,1.682-2.509,3.289-3.778,4.824c-1.273,1.537-2.497,2.905-3.673,4.104c-1.178,1.2-2.28,2.148-3.313,2.844
		c-1.033,0.696-1.908,1.044-2.628,1.044c-1.104,0-2.16-0.348-3.169-1.044c-1.008-0.695-1.883-1.548-2.627-2.556
		c-0.744-1.009-1.344-2.089-1.801-3.24c-0.455-1.152-0.685-2.184-0.685-3.096c0-1.297,0.192-2.664,0.576-4.104
		c0.385-1.44,0.9-2.939,1.548-4.5c0.647-1.56,1.356-3.119,2.124-4.68c0.77-1.56,1.562-3.107,2.376-4.645
		c0.672-1.247,1.319-2.483,1.944-3.708c0.623-1.224,1.176-2.387,1.655-3.492c0.479-1.104,0.863-2.124,1.151-3.06
		s0.434-1.764,0.434-2.484c0-0.767,0.526-1.175,1.584-1.224c1.055-0.047,2.23,0.216,3.526,0.792
		c1.296,0.576,2.473,1.393,3.528,2.448c1.056,1.057,1.584,2.304,1.584,3.744c0,0.575-0.181,1.367-0.54,2.376
		c-0.36,1.008-0.828,2.16-1.404,3.456s-1.248,2.688-2.016,4.176c-0.77,1.488-1.561,3.023-2.377,4.607
		c-0.96,1.872-1.92,3.721-2.879,5.544c-0.961,1.825-1.801,3.456-2.521,4.896c-0.72,1.44-1.271,2.604-1.654,3.492
		c-0.386,0.889-0.504,1.332-0.36,1.332c0.288,0,0.827-0.396,1.62-1.188c0.791-0.792,1.715-1.823,2.771-3.096
		c1.056-1.271,2.207-2.736,3.456-4.392c1.247-1.656,2.521-3.349,3.815-5.076c2.977-4.032,6.265-8.615,9.865-13.752
		c0.909-2.017,1.702-3.768,2.375-5.256c0.672-1.487,1.008-2.448,1.008-2.881c0-0.767,0.479-1.115,1.439-1.044
		c0.96,0.072,2.018,0.421,3.168,1.044c1.152,0.625,2.208,1.44,3.169,2.448c0.959,1.008,1.439,2.017,1.439,3.024
		c0,0.673-0.396,1.884-1.188,3.636c-0.793,1.753-1.74,3.78-2.845,6.084c-0.816,1.681-1.655,3.444-2.521,5.292
		c-0.863,1.849-1.655,3.625-2.375,5.328c-0.722,1.704-1.321,3.288-1.802,4.752c-0.479,1.465-0.72,2.628-0.72,3.492
		c0,0.385,0.048,0.576,0.145,0.576c0.815,0,1.717-0.479,2.7-1.439c0.982-0.96,2.017-2.196,3.097-3.708
		c1.08-1.512,2.171-3.204,3.274-5.076c1.104-1.872,2.136-3.744,3.097-5.616c0.96-1.872,1.836-3.636,2.629-5.292
		c0.791-1.655,1.451-3.011,1.979-4.067l0.647-1.368v-0.069H453.869z"/>
	<path d="M483.101,274.326c0.19-0.384,0.553-0.576,1.079-0.576c0.528,0,1.058,0.108,1.584,0.324
		c0.528,0.216,0.974,0.504,1.332,0.864c0.361,0.359,0.47,0.732,0.324,1.115c-0.432,0.864-1.057,2.102-1.871,3.708
		c-0.816,1.609-1.825,3.409-3.023,5.4c-1.2,1.992-2.581,4.068-4.141,6.228c-1.561,2.16-3.301,4.213-5.221,6.156
		c-1.92,1.944-3.984,3.685-6.191,5.221c-2.209,1.536-4.561,2.688-7.057,3.455c-1.632,0.385-3.145,0.576-4.535,0.576h-0.433
		c-2.304,0-4.079-0.551-5.327-1.655s-2.112-2.328-2.593-3.673c-0.479-1.343-0.659-2.566-0.54-3.672
		c0.121-1.104,0.373-1.655,0.756-1.655c0.769,0,1.285,0.216,1.549,0.647c0.264,0.431,0.516,0.961,0.756,1.584
		c0.096,0.288,0.215,0.576,0.359,0.864c0.144,0.288,0.336,0.563,0.576,0.828c0.239,0.264,0.553,0.48,0.936,0.647
		c0.385,0.169,0.889,0.252,1.512,0.252c0.771,0,1.585-0.275,2.449-0.828c0.863-0.551,1.655-1.307,2.375-2.268
		c0.721-0.96,1.32-2.088,1.801-3.384c0.479-1.296,0.721-2.688,0.721-4.176c0-1.392-0.288-2.688-0.864-3.889
		c-0.576-1.199-1.2-2.423-1.871-3.672l0.071,0.072l-1.296-2.304c-0.24,0.528-0.518,1.115-0.828,1.764
		c-0.313,0.646-0.804,1.524-1.478,2.628c-0.189,0.385-0.551,0.54-1.08,0.468c-0.526-0.072-1.043-0.239-1.547-0.504
		c-0.504-0.263-0.924-0.587-1.26-0.972c-0.336-0.384-0.408-0.744-0.217-1.08c0.576-1.056,1.08-1.968,1.512-2.736
		c0.434-0.767,0.793-1.439,1.08-2.016c0.289-0.576,0.529-1.092,0.721-1.548c0.192-0.456,0.386-0.9,0.576-1.332l-0.072,0.071
		l0.576-1.224c-0.145-0.864-0.217-1.631-0.217-2.304c0-2.112,0.396-4.044,1.188-5.796c0.793-1.752,1.765-3.252,2.916-4.5
		s2.352-2.208,3.602-2.88c1.247-0.672,2.327-1.009,3.239-1.009c0.479,0,1.104,0.049,1.872,0.145c0.768,0.097,1.512,0.3,2.231,0.611
		c0.72,0.313,1.332,0.757,1.836,1.332c0.504,0.576,0.756,1.345,0.756,2.305c0,0.816-0.24,1.548-0.721,2.195
		c-0.479,0.648-1.057,1.309-1.728,1.98c-0.77,0.72-1.524,1.584-2.27,2.592s-1.115,2.232-1.115,3.672c0,1.681,0.3,3.193,0.9,4.536
		c0.6,1.345,1.234,2.688,1.907,4.032v-0.072c0.814,1.393,1.522,2.844,2.124,4.356c0.6,1.512,0.899,3.252,0.899,5.22
		c0,0.385-0.013,0.816-0.036,1.296s-0.035,0.912-0.035,1.296c1.344-1.487,2.58-3.06,3.708-4.716
		c1.128-1.656,2.136-3.264,3.023-4.824c0.887-1.559,1.681-3.012,2.375-4.355c0.695-1.343,1.261-2.472,1.692-3.384l0.72-1.513
		L483.101,274.326z"/>
	<path d="M519.533,258.846c0,0.385-0.396,0.937-1.188,1.656c-0.792,0.719-2.017,1.429-3.672,2.124
		c-1.656,0.696-3.78,1.309-6.372,1.836c-2.592,0.529-5.664,0.792-9.217,0.792c-0.432,0.961-0.875,1.921-1.331,2.88
		c-0.457,0.961-0.925,1.921-1.404,2.88c-1.296,2.736-2.592,5.509-3.888,8.316c-1.297,2.808-2.461,5.461-3.492,7.956
		c-1.033,2.496-1.872,4.776-2.52,6.84c-0.648,2.064-0.973,3.744-0.973,5.04c0,1.152,0.359,1.729,1.079,1.729
		c1.345,0,2.796-0.552,4.355-1.656c1.561-1.104,3.133-2.521,4.717-4.248c1.584-1.729,3.155-3.636,4.716-5.724
		c1.561-2.089,2.977-4.116,4.248-6.085c1.271-1.967,2.364-3.755,3.276-5.363c0.91-1.607,1.559-2.796,1.942-3.564
		c0.191-0.335,0.552-0.504,1.08-0.504c0.527,0,1.068,0.108,1.62,0.324c0.553,0.216,1.009,0.504,1.368,0.864
		c0.359,0.359,0.468,0.732,0.324,1.115c-0.48,0.961-1.236,2.389-2.27,4.284c-1.031,1.897-2.292,3.996-3.779,6.3
		c-1.488,2.305-3.146,4.645-4.969,7.021c-1.824,2.376-3.742,4.548-5.76,6.516c-2.017,1.969-4.093,3.577-6.228,4.824
		c-2.138,1.249-4.261,1.872-6.373,1.872c-0.863,0-1.86-0.252-2.987-0.756c-1.128-0.504-2.196-1.235-3.204-2.196
		c-1.008-0.96-1.848-2.135-2.52-3.528c-0.672-1.392-1.008-2.999-1.008-4.823c0-1.056,0.313-2.557,0.936-4.5
		c0.624-1.944,1.452-4.164,2.484-6.66c1.031-2.495,2.207-5.172,3.526-8.028c1.32-2.855,2.652-5.724,3.996-8.604l1.512-3.24
		c-2.111-0.335-3.995-0.756-5.651-1.26c-1.655-0.504-3.047-1.02-4.176-1.548c-1.127-0.528-1.99-1.045-2.593-1.549
		c-0.6-0.504-0.899-0.898-0.899-1.188c0-0.672,0.107-1.163,0.324-1.477c0.217-0.312,0.541-0.504,0.973-0.575
		c0.432-0.072,0.984-0.036,1.656,0.107c0.672,0.145,1.487,0.313,2.446,0.504c1.104,0.241,2.521,0.517,4.248,0.828
		c1.729,0.313,3.769,0.589,6.12,0.828c1.729-3.744,3.155-7.067,4.284-9.972c1.127-2.904,1.691-4.956,1.691-6.156
		c0-0.768,0.479-1.104,1.439-1.008c0.96,0.097,2.027,0.457,3.204,1.08c1.176,0.624,2.243,1.439,3.204,2.447
		c0.96,1.009,1.44,2.017,1.44,3.024c0,1.104-0.324,2.604-0.974,4.5c-0.647,1.896-1.523,4.068-2.628,6.516
		c2.831-0.095,5.364-0.335,7.597-0.72c2.231-0.384,4.043-0.768,5.437-1.151l-0.072,0.071c1.535-0.384,2.736-0.54,3.601-0.468
		C519.101,257.442,519.533,257.935,519.533,258.846z"/>
	<path d="M590.739,232.206c3.07,0,5.724,0.504,7.956,1.512c2.231,1.009,4.067,2.425,5.508,4.248
		c1.439,1.825,2.496,3.996,3.168,6.517c0.672,2.52,1.008,5.292,1.008,8.315c0,4.368-0.684,9.108-2.051,14.221
		c-1.369,5.111-3.277,10.236-5.725,15.371c-2.448,5.138-5.378,10.093-8.784,14.868c-3.409,4.777-7.141,9-11.196,12.672
		c-4.057,3.673-8.363,6.612-12.924,8.82c-4.562,2.207-9.24,3.313-14.039,3.313c-2.93,0-5.438-0.409-7.525-1.225
		s-3.791-1.943-5.11-3.384c-1.32-1.441-2.28-3.168-2.881-5.184c-0.601-2.017-0.898-4.225-0.898-6.624
		c0-3.601,0.658-7.548,1.979-11.845c1.319-4.295,3.083-8.615,5.292-12.96c2.207-4.344,4.775-8.543,7.703-12.6
		c2.928-4.056,6.014-7.655,9.253-10.8c3.239-3.144,6.54-5.663,9.899-7.561c3.359-1.896,6.576-2.844,9.647-2.844
		c1.199,0,2.279,0.252,3.24,0.756c0.959,0.504,1.765,1.116,2.412,1.836c0.647,0.721,1.139,1.501,1.476,2.34
		c0.336,0.841,0.505,1.597,0.505,2.269c0,0.912-0.229,1.645-0.686,2.196c-0.456,0.552-1.188,0.827-2.194,0.827
		c-0.386,0-0.66-0.011-0.828-0.035s-0.35-0.061-0.54-0.108c-0.192,0-0.372-0.012-0.54-0.036c-0.168-0.023-0.324-0.036-0.469-0.036
		c-2.447,0-5.017,0.9-7.703,2.7c-2.688,1.8-5.341,4.152-7.956,7.056c-2.616,2.905-5.112,6.217-7.487,9.938
		c-2.377,3.72-4.465,7.5-6.265,11.34c-1.801,3.841-3.229,7.596-4.284,11.268c-1.058,3.673-1.584,6.901-1.584,9.685
		c0,2.304,0.442,4.14,1.332,5.508c0.888,1.368,2.34,2.052,4.355,2.052c2.399,0,4.86-0.673,7.38-2.016
		c2.521-1.345,5.04-3.168,7.562-5.472c2.52-2.305,4.979-5.016,7.379-8.137c2.4-3.119,4.681-6.455,6.84-10.008
		c2.16-3.552,4.152-7.247,5.978-11.088c1.823-3.84,3.396-7.619,4.716-11.34c1.318-3.72,2.352-7.309,3.097-10.764
		c0.743-3.456,1.115-6.6,1.115-9.433c0-3.359-0.637-6.06-1.908-8.1c-1.271-2.04-3.324-3.061-6.155-3.061
		c-3.984,0-8.054,0.805-12.204,2.412c-4.151,1.609-8.185,3.685-12.096,6.229c-3.913,2.544-7.585,5.399-11.017,8.567
		c-3.434,3.168-6.444,6.325-9.036,9.469s-4.633,6.096-6.119,8.855c-1.488,2.761-2.232,5.029-2.232,6.804
		c0,1.296,0.072,2.257,0.217,2.88c0.144,0.625,0.312,1.129,0.504,1.513c0.096,0.385,0.204,0.709,0.323,0.972
		c0.119,0.265,0.181,0.66,0.181,1.188c0,0.912-0.313,1.596-0.937,2.052c-0.624,0.457-1.439,0.684-2.447,0.684
		c-0.959,0-2.053-0.239-3.275-0.72c-1.225-0.479-2.377-1.212-3.457-2.196c-1.08-0.983-1.99-2.195-2.735-3.636
		c-0.742-1.44-1.115-3.144-1.115-5.112c0-2.831,0.84-5.903,2.52-9.216c1.682-3.312,4.009-6.635,6.984-9.972
		c2.976-3.336,6.526-6.552,10.655-9.648c4.127-3.096,8.65-5.832,13.572-8.208c4.92-2.376,10.151-4.284,15.695-5.724
		C579.328,232.926,584.979,232.206,590.739,232.206z"/>
	<path d="M635.02,249.126c0,1.057-0.291,2.461-0.87,4.212c-0.58,1.753-1.343,3.721-2.283,5.904
		c-0.943,2.185-2.021,4.548-3.229,7.092c-1.208,2.545-2.465,5.112-3.77,7.704c-1.296,2.688-2.581,5.341-3.853,7.956
		c-1.272,2.617-2.411,5.064-3.42,7.344c-1.009,2.28-1.813,4.32-2.412,6.12c-0.602,1.8-0.899,3.204-0.899,4.212
		c0,0.337,0.022,0.504,0.072,0.504c0.862,0,1.907-0.527,3.132-1.584c1.224-1.055,2.507-2.412,3.852-4.067
		c1.343-1.656,2.712-3.479,4.104-5.473c1.391-1.991,2.688-3.935,3.888-5.832c1.199-1.896,2.243-3.611,3.132-5.146
		c0.889-1.536,1.523-2.688,1.908-3.456c0.191-0.384,0.551-0.587,1.08-0.612c0.527-0.023,1.067,0.072,1.62,0.288
		c0.552,0.216,1.008,0.517,1.368,0.9c0.358,0.385,0.468,0.768,0.323,1.151c-0.479,0.961-1.25,2.389-2.305,4.284
		c-1.057,1.896-2.304,3.973-3.744,6.229c-1.438,2.257-3.036,4.571-4.787,6.947c-1.754,2.376-3.553,4.525-5.399,6.444
		c-1.85,1.92-3.686,3.505-5.508,4.752c-1.825,1.249-3.554,1.872-5.186,1.872c-2.398,0-4.355-0.875-5.868-2.628
		c-1.512-1.752-2.268-4.115-2.268-7.092c0-1.056,0.336-2.616,1.008-4.681c0.673-2.063,1.561-4.415,2.664-7.056
		c1.104-2.64,2.328-5.46,3.672-8.46c1.344-2.999,2.711-5.987,4.104-8.964c1.297-2.736,2.545-5.424,3.743-8.064
		c1.199-2.639,2.279-5.075,3.24-7.308c0.96-2.232,1.729-4.188,2.306-5.868c0.575-1.68,0.862-2.903,0.862-3.672
		c0-0.768,0.508-1.08,1.523-0.936c1.015,0.144,2.127,0.564,3.337,1.26c1.208,0.696,2.32,1.572,3.337,2.628
		C634.511,247.087,635.02,248.118,635.02,249.126z"/>
	<path d="M656.619,249.126c0,1.057-0.29,2.461-0.871,4.212c-0.58,1.753-1.341,3.721-2.283,5.904
		c-0.942,2.185-2.02,4.548-3.229,7.092c-1.207,2.545-2.465,5.112-3.771,7.704c-1.295,2.688-2.58,5.341-3.852,7.956
		c-1.272,2.617-2.412,5.064-3.42,7.344c-1.009,2.28-1.813,4.32-2.412,6.12c-0.602,1.8-0.9,3.204-0.9,4.212
		c0,0.337,0.023,0.504,0.072,0.504c0.864,0,1.908-0.527,3.133-1.584c1.224-1.055,2.507-2.412,3.853-4.067
		c1.343-1.656,2.711-3.479,4.104-5.473c1.393-1.991,2.688-3.935,3.889-5.832c1.199-1.896,2.242-3.611,3.131-5.146
		c0.89-1.536,1.523-2.688,1.908-3.456c0.191-0.384,0.553-0.587,1.08-0.612c0.527-0.023,1.068,0.072,1.621,0.288
		c0.551,0.216,1.008,0.517,1.367,0.9c0.359,0.385,0.469,0.768,0.324,1.151c-0.48,0.961-1.249,2.389-2.306,4.284
		c-1.056,1.896-2.303,3.973-3.743,6.229c-1.439,2.257-3.035,4.571-4.787,6.947c-1.753,2.376-3.554,4.525-5.4,6.444
		c-1.848,1.92-3.684,3.505-5.508,4.752c-1.824,1.249-3.553,1.872-5.185,1.872c-2.399,0-4.355-0.875-5.867-2.628
		c-1.514-1.752-2.27-4.115-2.27-7.092c0-1.056,0.337-2.616,1.008-4.681c0.675-2.063,1.562-4.415,2.664-7.056
		c1.105-2.64,2.329-5.46,3.672-8.46c1.345-2.999,2.712-5.987,4.104-8.964c1.296-2.736,2.544-5.424,3.744-8.064
		c1.199-2.639,2.278-5.075,3.238-7.308c0.962-2.232,1.729-4.188,2.306-5.868c0.576-1.68,0.862-2.903,0.862-3.672
		c0-0.768,0.509-1.08,1.523-0.936c1.016,0.144,2.128,0.564,3.338,1.26c1.207,0.696,2.32,1.572,3.336,2.628
		C656.111,247.087,656.619,248.118,656.619,249.126z"/>
	<path d="M690.893,274.254c0.189-0.384,0.563-0.576,1.115-0.576c0.551,0,1.092,0.108,1.619,0.324s0.973,0.517,1.332,0.9
		c0.361,0.385,0.469,0.769,0.324,1.151c-0.48,0.961-1.213,2.389-2.195,4.284c-0.984,1.897-2.209,3.985-3.672,6.265
		c-1.465,2.28-3.133,4.62-5.004,7.02c-1.873,2.4-3.938,4.584-6.193,6.552c-2.256,1.969-4.68,3.577-7.271,4.824
		c-2.593,1.249-5.306,1.872-8.137,1.872c-2.4,0-4.464-0.504-6.191-1.512c-1.729-1.008-3.168-2.279-4.319-3.816
		c-1.151-1.535-2.004-3.215-2.556-5.04c-0.552-1.823-0.828-3.575-0.828-5.256c0-3.359,0.815-6.684,2.447-9.972
		c1.632-3.287,3.779-6.229,6.443-8.82c2.664-2.591,5.663-4.691,9.001-6.3c3.334-1.607,6.73-2.412,10.188-2.412
		c2.256,0,3.875,0.504,4.858,1.512c0.984,1.008,1.478,2.353,1.478,4.032c0,1.249-0.324,2.677-0.974,4.284
		c-0.647,1.608-1.522,3.275-2.627,5.004c-1.104,1.728-2.377,3.433-3.815,5.112c-1.439,1.681-2.965,3.216-4.572,4.607
		c-1.608,1.393-3.252,2.581-4.932,3.564c-1.683,0.984-3.289,1.645-4.824,1.979c-0.193,0.913-0.288,1.825-0.288,2.736
		c0,1.104,0.19,2.005,0.575,2.7c0.385,0.696,1.032,1.044,1.945,1.044c2.11,0,4.198-0.54,6.264-1.62
		c2.063-1.08,4.031-2.459,5.904-4.14c1.87-1.68,3.635-3.54,5.291-5.58c1.655-2.04,3.133-4.032,4.428-5.977
		c1.297-1.943,2.389-3.695,3.276-5.256C689.871,276.187,690.508,275.022,690.893,274.254z M677.932,268.854
		c-1.151,0-2.412,0.564-3.778,1.691c-1.369,1.129-2.713,2.592-4.033,4.393c-1.32,1.8-2.568,3.828-3.744,6.084
		c-1.176,2.257-2.172,4.488-2.987,6.695c1.729-0.863,3.479-2.111,5.258-3.744c1.772-1.631,3.383-3.358,4.821-5.184
		c1.441-1.823,2.604-3.6,3.492-5.328c0.889-1.728,1.332-3.119,1.332-4.176C678.291,268.998,678.172,268.854,677.932,268.854z
		 M664.035,256.254c0.289,0,0.84-0.252,1.656-0.756c0.815-0.504,1.739-1.14,2.771-1.908c1.033-0.767,2.113-1.62,3.24-2.556
		c1.127-0.937,2.16-1.848,3.096-2.736c0.938-0.888,1.703-1.691,2.305-2.412c0.601-0.72,0.9-1.247,0.9-1.584
		c0-0.383,0.432-0.504,1.295-0.359c0.865,0.144,1.801,0.456,2.81,0.936c1.008,0.48,1.942,1.033,2.809,1.656
		c0.863,0.624,1.295,1.224,1.295,1.8c0,0.433-0.371,1.057-1.115,1.872c-0.744,0.816-1.705,1.692-2.881,2.628
		c-1.176,0.937-2.508,1.896-3.996,2.88c-1.487,0.984-2.963,1.872-4.428,2.664s-2.844,1.44-4.139,1.944
		c-1.297,0.504-2.377,0.756-3.24,0.756c-0.674,0-1.213-0.252-1.621-0.756c-0.408-0.504-0.709-1.056-0.897-1.656
		c-0.193-0.6-0.277-1.152-0.253-1.656C663.663,256.506,663.795,256.254,664.035,256.254z"/>
</g>
</svg>
