<?xml version="1.0" encoding="utf-8"?>
<!-- Generator: Adobe Illustrator 14.0.0, SVG Export Plug-In . SVG Version: 6.00 Build 43363)  -->
<!DOCTYPE svg PUBLIC "-//W3C//DTD SVG 1.1//EN" "http://www.w3.org/Graphics/SVG/1.1/DTD/svg11.dtd">
<svg version="1.1" id="Capa_1" xmlns="http://www.w3.org/2000/svg" xmlns:xlink="http://www.w3.org/1999/xlink" x="0px" y="0px"
	 width="613px" height="108px" viewBox="79.5 339.5 613 108" enable-background="new 79.5 339.5 613 108" xml:space="preserve">
<g enable-background="new    ">
	<path fill="none" stroke="#000000" stroke-width="3" d="M141.092,422.56h-2.215l-12.27-35.508l-11.461,35.508h-2.215L96.69,370.353
		h7.313l10.336,35.965l11.32-35.965h2.461l11.18,35.895l10.512-35.895h7.313L141.092,422.56z"/>
	<path fill="none" stroke="#000000" stroke-width="3" d="M190.733,403.682h-27.141c0,4.405,1.207,7.793,3.621,10.159
		c2.132,2.063,4.875,3.095,8.227,3.095c3.82,0,7.008-1.113,9.563-3.34l2.813,4.815c-1.032,1.03-2.614,1.922-4.746,2.672
		c-2.672,0.984-5.648,1.477-8.93,1.477c-4.734,0-8.754-1.604-12.059-4.815c-3.68-3.539-5.52-8.297-5.52-14.273
		c0-6.211,1.886-11.191,5.66-14.941c3.375-3.352,7.371-5.027,11.988-5.027c5.367,0,9.574,1.512,12.621,4.535
		c2.953,2.906,4.43,6.762,4.43,11.566C191.26,401.079,191.084,402.438,190.733,403.682z M174.526,389.126
		c-2.977,0-5.473,0.961-7.488,2.883c-1.922,1.828-3.012,4.102-3.27,6.82h20.848c0-2.695-0.844-4.945-2.531-6.75
		C180.233,390.11,177.713,389.126,174.526,389.126z"/>
	<path fill="none" stroke="#000000" stroke-width="3" d="M203.987,419.148l-2.355,3.41h-3.34V368.77h6.68v18.211
		c0.633-0.867,1.822-1.664,3.568-2.391s3.463-1.09,5.15-1.09c5.156,0,9.334,1.781,12.533,5.344c3.199,3.563,4.799,8.063,4.799,13.5
		c0,6.281-1.605,11.221-4.816,14.818s-7.559,5.396-13.043,5.396c-1.781,0-3.533-0.334-5.256-1.002
		C206.184,420.889,204.877,420.087,203.987,419.148z M204.971,392.079v21.728c0,0.375,0.832,0.989,2.496,1.846
		c1.664,0.854,2.93,1.283,3.797,1.283c4.547,0,7.805-1.09,9.773-3.271c1.968-2.181,2.953-5.836,2.953-10.97
		c0-4.265-1.148-7.593-3.445-9.983c-2.297-2.391-5.391-3.586-9.281-3.586c-0.821,0-1.963,0.352-3.428,1.055
		C206.372,390.884,205.416,391.517,204.971,392.079z"/>
	<path fill="none" stroke="#000000" stroke-width="3" d="M283.967,421.821v-2.777c-2.32,2.32-5.695,3.48-10.125,3.48
		c-4.711,0-8.531-1.688-11.461-5.063c-2.93-3.375-4.395-7.875-4.395-13.5c0-5.648,1.688-10.471,5.063-14.467
		s7.395-5.994,12.059-5.994c3.89,0,6.843,0.914,8.859,2.742v-17.473h6.68v53.051L283.967,421.821L283.967,421.821z M283.967,392.923
		c-1.688-2.531-3.996-3.797-6.926-3.797c-3.586,0-6.486,1.336-8.701,4.008c-2.215,2.672-3.322,6.07-3.322,10.195
		c0,9.069,4.125,13.604,12.375,13.604c1.055,0,2.32-0.334,3.797-1.002s2.402-1.377,2.777-2.127V392.923L283.967,392.923z"/>
	<path fill="none" stroke="#000000" stroke-width="3" d="M331.92,403.682h-27.14c0,4.405,1.207,7.793,3.621,10.159
		c2.132,2.063,4.875,3.095,8.227,3.095c3.82,0,7.008-1.113,9.563-3.34l2.813,4.815c-1.032,1.03-2.614,1.922-4.746,2.672
		c-2.672,0.984-5.647,1.477-8.93,1.477c-4.734,0-8.754-1.604-12.06-4.815c-3.68-3.539-5.52-8.297-5.52-14.273
		c0-6.211,1.886-11.191,5.66-14.941c3.375-3.352,7.371-5.027,11.988-5.027c5.366,0,9.573,1.512,12.62,4.535
		c2.953,2.906,4.431,6.762,4.431,11.566C332.448,401.079,332.272,402.438,331.92,403.682z M315.713,389.126
		c-2.977,0-5.473,0.961-7.488,2.883c-1.922,1.828-3.012,4.102-3.27,6.82h20.848c0-2.695-0.844-4.945-2.53-6.75
		C321.42,390.11,318.9,389.126,315.713,389.126z"/>
	<path fill="none" stroke="#000000" stroke-width="3" d="M353.049,422.56h-1.758l-16.137-38.46h7.313l9.949,26.367l10.16-26.367
		h6.996L353.049,422.56z"/>
	<path fill="none" stroke="#000000" stroke-width="3" d="M406.451,403.682h-27.141c0,4.405,1.207,7.793,3.621,10.159
		c2.133,2.063,4.875,3.095,8.228,3.095c3.819,0,7.008-1.113,9.562-3.34l2.813,4.815c-1.031,1.03-2.613,1.922-4.746,2.672
		c-2.672,0.984-5.648,1.477-8.93,1.477c-4.734,0-8.755-1.604-12.06-4.815c-3.68-3.539-5.52-8.297-5.52-14.273
		c0-6.211,1.886-11.191,5.66-14.941c3.375-3.352,7.37-5.027,11.987-5.027c5.367,0,9.574,1.512,12.621,4.535
		c2.953,2.906,4.43,6.762,4.43,11.566C406.979,401.079,406.803,402.438,406.451,403.682z M390.245,389.126
		c-2.978,0-5.473,0.961-7.488,2.883c-1.922,1.828-3.012,4.102-3.27,6.82h20.848c0-2.695-0.844-4.945-2.531-6.75
		C395.952,390.11,393.432,389.126,390.245,389.126z"/>
	<path fill="none" stroke="#000000" stroke-width="3" d="M414.537,411.204V368.77h6.68v41.309c0,2.017,0.58,3.604,1.74,4.764
		c1.16,1.16,2.678,1.74,4.553,1.74v5.977C418.861,422.56,414.537,418.773,414.537,411.204z"/>
	<path fill="none" stroke="#000000" stroke-width="3" d="M432.783,402.941c0-5.813,1.563-10.505,4.692-14.08
		c3.13-3.574,7.248-5.361,12.357-5.361c5.391,0,9.574,1.717,12.551,5.15c2.978,3.433,4.465,8.197,4.465,14.291
		c0,6.07-1.522,10.857-4.569,14.361s-7.195,5.256-12.445,5.256c-5.367,0-9.551-1.77-12.551-5.309S432.783,408.941,432.783,402.941z
		 M439.814,402.941c0,9.445,3.34,14.168,10.02,14.168c3.117,0,5.561-1.266,7.33-3.797c1.769-2.53,2.654-5.987,2.654-10.371
		c0-9.328-3.328-13.991-9.984-13.991c-3.047,0-5.479,1.242-7.295,3.727C440.723,395.162,439.814,398.583,439.814,402.941z"/>
	<path fill="none" stroke="#000000" stroke-width="3" d="M480.561,419.782v16.84h-6.68v-52.418h6.68v3.094
		c2.531-2.531,5.591-3.797,9.177-3.797c5.344,0,9.504,1.664,12.479,4.992c2.977,3.328,4.465,8.203,4.465,14.625
		c0,5.719-1.5,10.389-4.5,14.01s-7.336,5.432-13.008,5.432c-1.594,0-3.299-0.28-5.115-0.844
		C482.243,421.152,481.076,420.509,480.561,419.782z M480.561,392.325v21.938c0.423,0.633,1.313,1.235,2.673,1.811
		c1.358,0.574,2.684,0.861,3.973,0.861c8.297,0,12.445-4.688,12.445-14.063c0-4.758-0.984-8.238-2.953-10.441
		c-1.97-2.203-5.121-3.305-9.457-3.305c-0.938,0-2.086,0.328-3.445,0.984C482.438,390.766,481.357,391.505,480.561,392.325z"/>
	<path fill="none" stroke="#000000" stroke-width="3" d="M557.588,421.856V398.02c0-5.93-2.565-8.895-7.699-8.895
		c-1.616,0-3.129,0.498-4.534,1.494c-1.406,0.996-2.367,2.127-2.884,3.393v27.844h-6.68v-26.754c0-1.852-0.697-3.311-2.092-4.377
		c-1.396-1.066-3.24-1.6-5.537-1.6c-1.336,0-2.76,0.516-4.271,1.547c-1.511,1.031-2.584,2.168-3.217,3.41v27.772h-6.68v-37.651
		h4.359l2.215,4.359c2.578-3.375,5.801-5.063,9.668-5.063c5.391,0,9.164,1.676,11.32,5.027c0.75-1.43,2.145-2.625,4.184-3.586
		s4.137-1.441,6.293-1.441c3.891,0,6.902,1.154,9.035,3.463s3.199,5.549,3.199,9.721v25.172L557.588,421.856L557.588,421.856z"/>
	<path fill="none" stroke="#000000" stroke-width="3" d="M605.471,403.682H578.33c0,4.405,1.207,7.793,3.621,10.159
		c2.133,2.063,4.875,3.095,8.227,3.095c3.82,0,7.008-1.113,9.563-3.34l2.813,4.815c-1.03,1.03-2.612,1.922-4.746,2.672
		c-2.672,0.984-5.647,1.477-8.93,1.477c-4.734,0-8.754-1.604-12.059-4.815c-3.681-3.539-5.521-8.297-5.521-14.273
		c0-6.211,1.887-11.191,5.66-14.941c3.375-3.352,7.371-5.027,11.988-5.027c5.366,0,9.573,1.512,12.621,4.535
		c2.952,2.906,4.43,6.762,4.43,11.566C605.998,401.079,605.822,402.438,605.471,403.682z M589.264,389.126
		c-2.977,0-5.473,0.961-7.487,2.883c-1.923,1.828-3.013,4.102-3.271,6.82h20.848c0-2.695-0.844-4.945-2.53-6.75
		C594.971,390.11,592.451,389.126,589.264,389.126z"/>
	<path fill="none" stroke="#000000" stroke-width="3" d="M636.197,421.856v-21.902c0-4.008-0.604-6.814-1.812-8.42
		c-1.207-1.606-3.229-2.408-6.063-2.408c-1.523,0-3.117,0.457-4.781,1.371s-2.941,2.039-3.832,3.375v27.984h-6.68v-37.652h4.569
		l2.109,4.852c2.203-3.703,5.801-5.555,10.793-5.555c8.25,0,12.375,5.016,12.375,15.047v23.31L636.197,421.856L636.197,421.856z"/>
	<path fill="none" stroke="#000000" stroke-width="3" d="M654.76,389.478H650.4v-5.273h4.358v-7.875l6.681-2.566v10.441h10.336
		v5.273h-10.336v18.704c0,3.164,0.532,5.414,1.6,6.75c1.066,1.336,2.783,2.004,5.15,2.004c1.711,0,3.479-0.435,5.309-1.302
		l0.984,5.871c-2.767,0.703-5.802,1.055-9.105,1.055c-2.977,0-5.49-1.106-7.541-3.321s-3.076-5.01-3.076-8.385V389.478
		L654.76,389.478z"/>
</g>
</svg>
